<svg xmlns="http://www.w3.org/2000/svg" version="1.1" xmlns:xlink="http://www.w3.org/1999/xlink" xmlns:svgjs="http://svgjs.dev/svgjs" width="512" height="512"><svg width="512" height="512" viewBox="0 0 135.46666 135.46667" version="1.1" id="SvgjsSvg1055" xml:space="preserve" xmlns:inkscape="http://www.inkscape.org/namespaces/inkscape" xmlns:sodipodi="http://sodipodi.sourceforge.net/DTD/sodipodi-0.dtd" xmlns="http://www.w3.org/2000/svg" xmlns:svg="http://www.w3.org/2000/svg"><sodipodi:namedview id="SvgjsSodipodi:namedview1054" pagecolor="#505050" bordercolor="#eeeeee" borderopacity="1" inkscape:showpageshadow="0" inkscape:pageopacity="0" inkscape:pagecheckerboard="0" inkscape:deskcolor="#505050" inkscape:document-units="mm" inkscape:export-bgcolor="#ffffff00"></sodipodi:namedview><defs id="SvgjsDefs1053"></defs><g inkscape:label="Ebene 1" inkscape:groupmode="layer" id="SvgjsG1052"><g id="SvgjsG1051" transform="matrix(0.26458333,0,0,0.26458333,-3.1958121,20.956844)" style="fill:#ffffff;fill-opacity:1"><g id="SvgjsG1050" transform="matrix(0.80185315,0,0,0.81565683,47.247504,-47.839266)" style="fill:#ffffff;fill-opacity:1">
	<path d="m 160.381,282.225 c 0,-14.832 -10.299,-23.684 -28.474,-23.684 -7.414,0 -12.437,0.715 -15.071,1.432 V 307.6 c 3.114,0.707 6.942,0.949 12.192,0.949 19.391,0 31.353,-9.809 31.353,-26.324 z" id="SvgjsPath1049" style="fill:#ffffff;fill-opacity:1"></path>
	<path d="m 272.875,259.019 c -8.145,0 -13.397,0.717 -16.519,1.435 v 105.523 c 3.116,0.729 8.142,0.729 12.69,0.729 33.017,0.231 54.554,-17.946 54.554,-56.474 0.242,-33.513 -19.385,-51.213 -50.725,-51.213 z" id="SvgjsPath1048" style="fill:#ffffff;fill-opacity:1"></path>
	<path d="M 488.426,197.019 H 475.2 v -63.816 c 0,-0.398 -0.063,-0.799 -0.116,-1.202 -0.021,-2.534 -0.827,-5.023 -2.562,-6.995 L 366.325,3.694 C 366.293,3.663 366.262,3.652 366.24,3.618 365.607,2.911 364.869,2.323 364.089,1.814 363.858,1.659 363.625,1.529 363.383,1.395 362.707,1.026 361.99,0.72 361.252,0.499 c -0.2,-0.056 -0.38,-0.138 -0.58,-0.19 C 359.87,0.119 359.037,0 358.193,0 H 97.2 C 85.282,0 75.6,9.693 75.6,21.601 V 197.014 H 62.377 c -17.049,0 -30.873,13.818 -30.873,30.873 v 160.545 c 0,17.043 13.824,30.87 30.873,30.87 H 75.601 V 529.2 c 0,11.907 9.682,21.601 21.6,21.601 h 356.4 c 11.907,0 21.6,-9.693 21.6,-21.601 V 419.302 h 13.226 c 17.044,0 30.871,-13.827 30.871,-30.87 V 227.892 C 519.297,210.838 505.47,197.019 488.426,197.019 Z M 97.2,21.605 h 250.193 v 110.513 c 0,5.967 4.841,10.8 10.8,10.8 H 453.6 v 54.108 H 97.2 Z m 265.159,287.418 c 0,30.876 -11.243,52.165 -26.82,65.333 -16.971,14.117 -42.82,20.814 -74.396,20.814 -18.9,0 -32.297,-1.197 -41.401,-2.389 V 234.365 c 13.399,-2.149 30.878,-3.346 49.304,-3.346 30.612,0 50.478,5.508 66.039,17.226 16.743,12.445 27.274,32.302 27.274,60.778 z M 80.7,393.499 V 234.365 c 11.241,-1.904 27.042,-3.346 49.296,-3.346 22.491,0 38.527,4.308 49.291,12.928 10.292,8.131 17.215,21.534 17.215,37.328 0,15.799 -5.25,29.198 -14.829,38.285 -12.442,11.728 -30.865,16.996 -52.407,16.996 -4.778,0 -9.1,-0.243 -12.435,-0.723 v 57.67 H 80.7 Z M 453.601,523.353 H 97.2 V 419.302 h 356.4 v 104.051 z m 31.297,-261.226 h -61.989 v 36.851 h 57.913 v 29.674 H 422.909 V 393.5 H 386.316 V 232.216 h 98.582 z" id="SvgjsPath1047" style="fill:#ffffff;fill-opacity:1"></path>
</g><g id="SvgjsG1046" style="fill:#ffffff;fill-opacity:1">
</g><g id="SvgjsG1045" style="fill:#ffffff;fill-opacity:1">
</g><g id="SvgjsG1044" style="fill:#ffffff;fill-opacity:1">
</g><g id="SvgjsG1043" style="fill:#ffffff;fill-opacity:1">
</g><g id="SvgjsG1042" style="fill:#ffffff;fill-opacity:1">
</g><g id="SvgjsG1041" style="fill:#ffffff;fill-opacity:1">
</g><g id="SvgjsG1040" style="fill:#ffffff;fill-opacity:1">
</g><g id="SvgjsG1039" style="fill:#ffffff;fill-opacity:1">
</g><g id="SvgjsG1038" style="fill:#ffffff;fill-opacity:1">
</g><g id="SvgjsG1037" style="fill:#ffffff;fill-opacity:1">
</g><g id="SvgjsG1036" style="fill:#ffffff;fill-opacity:1">
</g><g id="SvgjsG1035" style="fill:#ffffff;fill-opacity:1">
</g><g id="SvgjsG1034" style="fill:#ffffff;fill-opacity:1">
</g><g id="SvgjsG1033" style="fill:#ffffff;fill-opacity:1">
</g><g id="SvgjsG1032" style="fill:#ffffff;fill-opacity:1">
</g></g><rect style="fill:#ffffff;fill-opacity:1;stroke-width:0.264583" id="SvgjsRect1031" width="91.185463" height="39.263996" x="23.248419" y="56.312836"></rect><text xml:space="preserve" style="font-size:19.1458px;font-family:'Varela Round';-inkscape-font-specification:'Varela Round';text-align:center;text-anchor:middle;fill:#000000;fill-opacity:1;stroke-width:0.358983" x="67.921738" y="70.185837" id="SvgjsText1030" transform="scale(1.0040984,0.99591831)" svgjs:data="{&quot;leading&quot;:&quot;1.3&quot;}"><tspan sodipodi:role="line" id="SvgjsTspan1029" style="font-style:normal;font-variant:normal;font-weight:normal;font-stretch:normal;font-size:19.1458px;font-family:'Varela Round';-inkscape-font-specification:'Varela Round, Normal';font-variant-ligatures:normal;font-variant-caps:normal;font-variant-numeric:normal;font-variant-east-asian:normal;fill:#000000;fill-opacity:1;stroke-width:0.358983" x="67.921738" y="70.185837">DeepSeek</tspan><tspan sodipodi:role="line" style="font-style:normal;font-variant:normal;font-weight:normal;font-stretch:normal;font-size:19.1458px;font-family:'Varela Round';-inkscape-font-specification:'Varela Round, Normal';font-variant-ligatures:normal;font-variant-caps:normal;font-variant-numeric:normal;font-variant-east-asian:normal;fill:#000000;fill-opacity:1;stroke-width:0.358983" x="67.921738" y="94.118088" id="SvgjsTspan1028">PDF</tspan></text></g></svg><style>@media (prefers-color-scheme: light) { :root { filter: none; } }
@media (prefers-color-scheme: dark) { :root { filter: none; } }
</style></svg>